<mxfile host="app.diagrams.net" modified="2024-01-03T19:15:18.721Z" agent="Mozilla/5.0 (Windows NT 10.0; Win64; x64) AppleWebKit/537.36 (KHTML, like Gecko) Chrome/120.0.0.0 Safari/537.36" etag="LFG4HJRFuRT9kyj8eMOe" version="22.1.16" type="device">
  <diagram name="Page-1" id="9kCDMBCtZoSfwNyQTBR-">
    <mxGraphModel dx="6135" dy="4045" grid="1" gridSize="10" guides="1" tooltips="1" connect="1" arrows="1" fold="1" page="1" pageScale="1" pageWidth="850" pageHeight="1100" math="0" shadow="0">
      <root>
        <mxCell id="0" />
        <mxCell id="1" parent="0" />
        <mxCell id="2045cuq98jGpGBP9lHV3-7" value="" style="rounded=0;whiteSpace=wrap;html=1;" parent="1" vertex="1">
          <mxGeometry x="-2000" y="-850" width="830" height="370" as="geometry" />
        </mxCell>
        <mxCell id="2045cuq98jGpGBP9lHV3-1" value="" style="rounded=0;whiteSpace=wrap;html=1;" parent="1" vertex="1">
          <mxGeometry x="-2000" y="-970" width="830" height="150" as="geometry" />
        </mxCell>
        <mxCell id="2045cuq98jGpGBP9lHV3-2" value="&lt;font style=&quot;font-size: 25px;&quot;&gt;Grimsby &amp;amp; Clee sells&amp;nbsp;&lt;/font&gt;" style="text;html=1;strokeColor=none;fillColor=none;align=center;verticalAlign=middle;whiteSpace=wrap;rounded=0;" parent="1" vertex="1">
          <mxGeometry x="-1740" y="-970" width="281" height="60" as="geometry" />
        </mxCell>
        <mxCell id="2045cuq98jGpGBP9lHV3-3" value="" style="shape=image;html=1;verticalAlign=top;verticalLabelPosition=bottom;labelBackgroundColor=#ffffff;imageAspect=0;aspect=fixed;image=https://cdn0.iconfinder.com/data/icons/user-interface-1-32/32/hamburger-menu-128.png" parent="1" vertex="1">
          <mxGeometry x="-1988" y="-921" width="58" height="58" as="geometry" />
        </mxCell>
        <mxCell id="2045cuq98jGpGBP9lHV3-4" value="&lt;font style=&quot;font-size: 20px;&quot;&gt;Users username&lt;/font&gt;" style="text;html=1;strokeColor=none;fillColor=none;align=center;verticalAlign=middle;whiteSpace=wrap;rounded=0;" parent="1" vertex="1">
          <mxGeometry x="-1922" y="-916" width="195" height="50" as="geometry" />
        </mxCell>
        <mxCell id="2045cuq98jGpGBP9lHV3-5" value="&lt;div style=&quot;font-size: 16px;&quot;&gt;&lt;span style=&quot;background-color: initial;&quot;&gt;home&lt;/span&gt;&lt;span style=&quot;background-color: initial; white-space: pre;&quot;&gt;&#x9;&lt;/span&gt;&lt;span style=&quot;background-color: initial; white-space: pre;&quot;&gt;&#x9;&lt;/span&gt;&lt;span style=&quot;background-color: initial;&quot;&gt;Search&lt;/span&gt;&lt;span style=&quot;background-color: initial; white-space: pre;&quot;&gt;&#x9;&lt;/span&gt;&lt;span style=&quot;background-color: initial; white-space: pre;&quot;&gt;&#x9;&lt;/span&gt;My Cart&lt;span style=&quot;white-space: pre;&quot;&gt;&#x9;&lt;/span&gt;&lt;span style=&quot;white-space: pre;&quot;&gt;&#x9;&lt;/span&gt;Sell Product&lt;span style=&quot;white-space: pre;&quot;&gt;&#x9;&lt;/span&gt;&lt;span style=&quot;white-space: pre;&quot;&gt;&#x9;&lt;/span&gt;Trending&amp;nbsp;&lt;/div&gt;" style="text;html=1;strokeColor=none;fillColor=none;align=left;verticalAlign=middle;whiteSpace=wrap;rounded=0;" parent="1" vertex="1">
          <mxGeometry x="-1730" y="-910" width="540" height="36" as="geometry" />
        </mxCell>
        <mxCell id="2045cuq98jGpGBP9lHV3-6" value="&lt;font color=&quot;#cc0000&quot; style=&quot;font-size: 55px;&quot;&gt;PAGE CONTENT&lt;/font&gt;" style="text;html=1;strokeColor=none;fillColor=none;align=center;verticalAlign=middle;whiteSpace=wrap;rounded=0;" parent="1" vertex="1">
          <mxGeometry x="-1872.25" y="-810" width="574.5" height="260" as="geometry" />
        </mxCell>
        <mxCell id="2045cuq98jGpGBP9lHV3-8" value="" style="rounded=0;whiteSpace=wrap;html=1;" parent="1" vertex="1">
          <mxGeometry x="-2000" y="-10" width="830" height="370" as="geometry" />
        </mxCell>
        <mxCell id="2045cuq98jGpGBP9lHV3-9" value="" style="rounded=0;whiteSpace=wrap;html=1;" parent="1" vertex="1">
          <mxGeometry x="-2000" y="-130" width="830" height="140" as="geometry" />
        </mxCell>
        <mxCell id="2045cuq98jGpGBP9lHV3-10" value="&lt;font style=&quot;font-size: 25px;&quot;&gt;Grimsby &amp;amp; Clee sells&amp;nbsp;&lt;/font&gt;" style="text;html=1;strokeColor=none;fillColor=none;align=center;verticalAlign=middle;whiteSpace=wrap;rounded=0;" parent="1" vertex="1">
          <mxGeometry x="-1740" y="-130" width="281" height="60" as="geometry" />
        </mxCell>
        <mxCell id="2045cuq98jGpGBP9lHV3-11" value="" style="shape=image;html=1;verticalAlign=top;verticalLabelPosition=bottom;labelBackgroundColor=#ffffff;imageAspect=0;aspect=fixed;image=https://cdn0.iconfinder.com/data/icons/user-interface-1-32/32/hamburger-menu-128.png" parent="1" vertex="1">
          <mxGeometry x="-1980" y="-80" width="58" height="58" as="geometry" />
        </mxCell>
        <mxCell id="2045cuq98jGpGBP9lHV3-12" value="&lt;font style=&quot;font-size: 20px;&quot;&gt;Users username&lt;/font&gt;" style="text;html=1;strokeColor=none;fillColor=none;align=center;verticalAlign=middle;whiteSpace=wrap;rounded=0;" parent="1" vertex="1">
          <mxGeometry x="-1935" y="-76" width="195" height="50" as="geometry" />
        </mxCell>
        <mxCell id="2045cuq98jGpGBP9lHV3-14" value="&lt;font color=&quot;#cc0000&quot; style=&quot;font-size: 55px;&quot;&gt;PAGE CONTENT&lt;/font&gt;" style="text;html=1;strokeColor=none;fillColor=none;align=center;verticalAlign=middle;whiteSpace=wrap;rounded=0;" parent="1" vertex="1">
          <mxGeometry x="-1872.25" y="30" width="574.5" height="260" as="geometry" />
        </mxCell>
        <mxCell id="2045cuq98jGpGBP9lHV3-23" value="" style="sketch=0;outlineConnect=0;fontColor=#232F3E;gradientColor=none;fillColor=#232F3D;strokeColor=none;dashed=0;verticalLabelPosition=bottom;verticalAlign=top;align=center;html=1;fontSize=12;fontStyle=0;aspect=fixed;pointerEvents=1;shape=mxgraph.aws4.user;" parent="1" vertex="1">
          <mxGeometry x="-1930" y="-905" width="28" height="28" as="geometry" />
        </mxCell>
        <mxCell id="2045cuq98jGpGBP9lHV3-26" value="&lt;span style=&quot;white-space: pre;&quot;&gt;&#x9;&lt;/span&gt;Search Product" style="rounded=1;whiteSpace=wrap;html=1;align=left;" parent="1" vertex="1">
          <mxGeometry x="-1906" y="-863" width="642" height="32" as="geometry" />
        </mxCell>
        <mxCell id="2045cuq98jGpGBP9lHV3-27" value="&lt;span style=&quot;white-space: pre;&quot;&gt;&#x9;&lt;/span&gt;Search Product" style="rounded=1;whiteSpace=wrap;html=1;align=left;" parent="1" vertex="1">
          <mxGeometry x="-1880" y="-34" width="642" height="32" as="geometry" />
        </mxCell>
        <mxCell id="2045cuq98jGpGBP9lHV3-15" value="" style="rounded=0;whiteSpace=wrap;html=1;" parent="1" vertex="1">
          <mxGeometry x="-2000" y="-130" width="360" height="490" as="geometry" />
        </mxCell>
        <mxCell id="2045cuq98jGpGBP9lHV3-19" value="&lt;font style=&quot;font-size: 18px;&quot;&gt;Users Username&lt;/font&gt;" style="text;html=1;strokeColor=none;fillColor=none;align=center;verticalAlign=middle;whiteSpace=wrap;rounded=0;movable=1;resizable=1;rotatable=1;deletable=1;editable=1;locked=0;connectable=1;" parent="1" vertex="1">
          <mxGeometry x="-1922" y="-70" width="150" height="30" as="geometry" />
        </mxCell>
        <mxCell id="2045cuq98jGpGBP9lHV3-22" value="" style="sketch=0;outlineConnect=0;fontColor=#232F3E;gradientColor=none;fillColor=#232F3D;strokeColor=none;dashed=0;verticalLabelPosition=bottom;verticalAlign=top;align=center;html=1;fontSize=12;fontStyle=0;aspect=fixed;pointerEvents=1;shape=mxgraph.aws4.user;movable=1;resizable=1;rotatable=1;deletable=1;editable=1;locked=0;connectable=1;" parent="1" vertex="1">
          <mxGeometry x="-1963" y="-76" width="28" height="28" as="geometry" />
        </mxCell>
        <mxCell id="2045cuq98jGpGBP9lHV3-18" value="&lt;font style=&quot;font-size: 20px;&quot;&gt;X&lt;/font&gt;" style="text;html=1;strokeColor=none;fillColor=none;align=center;verticalAlign=middle;whiteSpace=wrap;rounded=0;" parent="1" vertex="1">
          <mxGeometry x="-1740" y="-116" width="120" height="40" as="geometry" />
        </mxCell>
        <mxCell id="2045cuq98jGpGBP9lHV3-24" value="&lt;span style=&quot;font-size: 25px;&quot;&gt;Change account details&lt;br&gt;&lt;br&gt;My Cart&lt;br&gt;&lt;br&gt;My Orders&lt;br&gt;&lt;br&gt;My Products&lt;br&gt;&lt;br&gt;Accessibility Settings&lt;br&gt;&lt;br&gt;Logout&lt;br&gt;&amp;nbsp;&lt;/span&gt;" style="text;html=1;strokeColor=none;fillColor=none;align=left;verticalAlign=middle;whiteSpace=wrap;rounded=0;" parent="1" vertex="1">
          <mxGeometry x="-1965" y="145" width="290" height="30" as="geometry" />
        </mxCell>
        <mxCell id="2045cuq98jGpGBP9lHV3-28" value="" style="rounded=0;whiteSpace=wrap;html=1;" parent="1" vertex="1">
          <mxGeometry x="-770" y="-980" width="360" height="500" as="geometry" />
        </mxCell>
        <mxCell id="2045cuq98jGpGBP9lHV3-29" value="" style="rounded=0;whiteSpace=wrap;html=1;" parent="1" vertex="1">
          <mxGeometry x="-770" y="-980" width="360" height="200" as="geometry" />
        </mxCell>
        <mxCell id="2045cuq98jGpGBP9lHV3-30" value="&lt;span style=&quot;white-space: pre;&quot;&gt;&#x9;&lt;/span&gt;Search Product" style="rounded=1;whiteSpace=wrap;html=1;align=left;" parent="1" vertex="1">
          <mxGeometry x="-758.5" y="-830" width="328" height="32" as="geometry" />
        </mxCell>
        <mxCell id="2045cuq98jGpGBP9lHV3-31" value="&lt;font style=&quot;font-size: 25px;&quot;&gt;Grimsby &amp;amp; Clee sells&amp;nbsp;&lt;/font&gt;" style="text;html=1;strokeColor=none;fillColor=none;align=center;verticalAlign=middle;whiteSpace=wrap;rounded=0;" parent="1" vertex="1">
          <mxGeometry x="-735" y="-990" width="281" height="60" as="geometry" />
        </mxCell>
        <mxCell id="2045cuq98jGpGBP9lHV3-32" value="&lt;div style=&quot;&quot;&gt;&lt;span style=&quot;background-color: initial;&quot;&gt;home&lt;/span&gt;&lt;span style=&quot;background-color: initial; white-space: pre;&quot;&gt;&#x9;&lt;span style=&quot;white-space: pre;&quot;&gt;&#x9;&lt;/span&gt;&lt;/span&gt;&lt;span style=&quot;background-color: initial;&quot;&gt;Search&lt;/span&gt;&lt;span style=&quot;background-color: initial; white-space: pre;&quot;&gt;&#x9;&lt;span style=&quot;white-space: pre;&quot;&gt;&#x9;&lt;/span&gt;&lt;/span&gt;My Cart&lt;span style=&quot;white-space: pre;&quot;&gt;&#x9;&lt;/span&gt;&lt;/div&gt;&lt;div style=&quot;&quot;&gt;Sell Product&lt;span style=&quot;white-space: pre;&quot;&gt;&#x9;&lt;span style=&quot;white-space: pre;&quot;&gt;&#x9;&lt;/span&gt;&lt;/span&gt;Trending&amp;nbsp;&lt;/div&gt;" style="text;html=1;strokeColor=none;fillColor=none;align=center;verticalAlign=middle;whiteSpace=wrap;rounded=0;" parent="1" vertex="1">
          <mxGeometry x="-770" y="-880" width="354" height="36" as="geometry" />
        </mxCell>
        <mxCell id="2045cuq98jGpGBP9lHV3-33" value="" style="shape=image;html=1;verticalAlign=top;verticalLabelPosition=bottom;labelBackgroundColor=#ffffff;imageAspect=0;aspect=fixed;image=https://cdn0.iconfinder.com/data/icons/user-interface-1-32/32/hamburger-menu-128.png" parent="1" vertex="1">
          <mxGeometry x="-758" y="-946" width="50" height="50" as="geometry" />
        </mxCell>
        <mxCell id="2045cuq98jGpGBP9lHV3-34" value="&lt;font style=&quot;font-size: 20px;&quot;&gt;Users username&lt;/font&gt;" style="text;html=1;strokeColor=none;fillColor=none;align=center;verticalAlign=middle;whiteSpace=wrap;rounded=0;" parent="1" vertex="1">
          <mxGeometry x="-672" y="-941" width="172" height="45" as="geometry" />
        </mxCell>
        <mxCell id="2045cuq98jGpGBP9lHV3-35" value="" style="sketch=0;outlineConnect=0;fontColor=#232F3E;gradientColor=none;fillColor=#232F3D;strokeColor=none;dashed=0;verticalLabelPosition=bottom;verticalAlign=top;align=center;html=1;fontSize=12;fontStyle=0;aspect=fixed;pointerEvents=1;shape=mxgraph.aws4.user;" parent="1" vertex="1">
          <mxGeometry x="-700" y="-935" width="28" height="28" as="geometry" />
        </mxCell>
        <mxCell id="2045cuq98jGpGBP9lHV3-36" value="&lt;font color=&quot;#cc0000&quot; style=&quot;font-size: 55px;&quot;&gt;PAGE CONTENT&lt;/font&gt;" style="text;html=1;strokeColor=none;fillColor=none;align=center;verticalAlign=middle;whiteSpace=wrap;rounded=0;" parent="1" vertex="1">
          <mxGeometry x="-731" y="-770" width="290" height="260" as="geometry" />
        </mxCell>
        <mxCell id="2045cuq98jGpGBP9lHV3-37" value="" style="rounded=0;whiteSpace=wrap;html=1;" parent="1" vertex="1">
          <mxGeometry x="-770" y="-130" width="360" height="500" as="geometry" />
        </mxCell>
        <mxCell id="2045cuq98jGpGBP9lHV3-38" value="" style="rounded=0;whiteSpace=wrap;html=1;" parent="1" vertex="1">
          <mxGeometry x="-770" y="-130" width="360" height="200" as="geometry" />
        </mxCell>
        <mxCell id="2045cuq98jGpGBP9lHV3-39" value="&lt;span style=&quot;white-space: pre;&quot;&gt;&#x9;&lt;/span&gt;Search Product" style="rounded=1;whiteSpace=wrap;html=1;align=left;" parent="1" vertex="1">
          <mxGeometry x="-758.5" y="20" width="328" height="32" as="geometry" />
        </mxCell>
        <mxCell id="2045cuq98jGpGBP9lHV3-40" value="&lt;font style=&quot;font-size: 25px;&quot;&gt;Grimsby &amp;amp; Clee sells&amp;nbsp;&lt;/font&gt;" style="text;html=1;strokeColor=none;fillColor=none;align=center;verticalAlign=middle;whiteSpace=wrap;rounded=0;" parent="1" vertex="1">
          <mxGeometry x="-735" y="-140" width="281" height="60" as="geometry" />
        </mxCell>
        <mxCell id="2045cuq98jGpGBP9lHV3-41" value="&lt;div style=&quot;&quot;&gt;&lt;span style=&quot;background-color: initial;&quot;&gt;home&lt;/span&gt;&lt;span style=&quot;background-color: initial; white-space: pre;&quot;&gt;&#x9;&lt;span style=&quot;white-space: pre;&quot;&gt;&#x9;&lt;/span&gt;&lt;/span&gt;&lt;span style=&quot;background-color: initial;&quot;&gt;Search&lt;/span&gt;&lt;span style=&quot;background-color: initial; white-space: pre;&quot;&gt;&#x9;&lt;span style=&quot;white-space: pre;&quot;&gt;&#x9;&lt;/span&gt;&lt;/span&gt;My Cart&lt;span style=&quot;white-space: pre;&quot;&gt;&#x9;&lt;/span&gt;&lt;/div&gt;&lt;div style=&quot;&quot;&gt;Sell Product&lt;span style=&quot;white-space: pre;&quot;&gt;&#x9;&lt;span style=&quot;white-space: pre;&quot;&gt;&#x9;&lt;/span&gt;&lt;/span&gt;Trending&amp;nbsp;&lt;/div&gt;" style="text;html=1;strokeColor=none;fillColor=none;align=center;verticalAlign=middle;whiteSpace=wrap;rounded=0;" parent="1" vertex="1">
          <mxGeometry x="-770" y="-30" width="354" height="36" as="geometry" />
        </mxCell>
        <mxCell id="2045cuq98jGpGBP9lHV3-42" value="" style="shape=image;html=1;verticalAlign=top;verticalLabelPosition=bottom;labelBackgroundColor=#ffffff;imageAspect=0;aspect=fixed;image=https://cdn0.iconfinder.com/data/icons/user-interface-1-32/32/hamburger-menu-128.png" parent="1" vertex="1">
          <mxGeometry x="-758" y="-96" width="50" height="50" as="geometry" />
        </mxCell>
        <mxCell id="2045cuq98jGpGBP9lHV3-43" value="&lt;font style=&quot;font-size: 20px;&quot;&gt;Users username&lt;/font&gt;" style="text;html=1;strokeColor=none;fillColor=none;align=center;verticalAlign=middle;whiteSpace=wrap;rounded=0;" parent="1" vertex="1">
          <mxGeometry x="-672" y="-91" width="172" height="45" as="geometry" />
        </mxCell>
        <mxCell id="2045cuq98jGpGBP9lHV3-44" value="" style="sketch=0;outlineConnect=0;fontColor=#232F3E;gradientColor=none;fillColor=#232F3D;strokeColor=none;dashed=0;verticalLabelPosition=bottom;verticalAlign=top;align=center;html=1;fontSize=12;fontStyle=0;aspect=fixed;pointerEvents=1;shape=mxgraph.aws4.user;" parent="1" vertex="1">
          <mxGeometry x="-700" y="-85" width="28" height="28" as="geometry" />
        </mxCell>
        <mxCell id="2045cuq98jGpGBP9lHV3-45" value="&lt;font color=&quot;#cc0000&quot; style=&quot;font-size: 55px;&quot;&gt;PAGE CONTENT&lt;/font&gt;" style="text;html=1;strokeColor=none;fillColor=none;align=center;verticalAlign=middle;whiteSpace=wrap;rounded=0;" parent="1" vertex="1">
          <mxGeometry x="-731" y="80" width="290" height="260" as="geometry" />
        </mxCell>
        <mxCell id="2045cuq98jGpGBP9lHV3-46" value="" style="rounded=0;whiteSpace=wrap;html=1;" parent="1" vertex="1">
          <mxGeometry x="-770" y="-130" width="240" height="500" as="geometry" />
        </mxCell>
        <mxCell id="2045cuq98jGpGBP9lHV3-47" value="&lt;font style=&quot;font-size: 20px;&quot;&gt;X&lt;/font&gt;" style="text;html=1;strokeColor=none;fillColor=none;align=center;verticalAlign=middle;whiteSpace=wrap;rounded=0;" parent="1" vertex="1">
          <mxGeometry x="-620" y="-125" width="120" height="40" as="geometry" />
        </mxCell>
        <mxCell id="2045cuq98jGpGBP9lHV3-48" value="&lt;font style=&quot;font-size: 17px;&quot;&gt;Users Username&lt;/font&gt;" style="text;html=1;strokeColor=none;fillColor=none;align=center;verticalAlign=middle;whiteSpace=wrap;rounded=0;movable=1;resizable=1;rotatable=1;deletable=1;editable=1;locked=0;connectable=1;" parent="1" vertex="1">
          <mxGeometry x="-720" y="-76" width="150" height="30" as="geometry" />
        </mxCell>
        <mxCell id="2045cuq98jGpGBP9lHV3-49" value="" style="sketch=0;outlineConnect=0;fontColor=#232F3E;gradientColor=none;fillColor=#232F3D;strokeColor=none;dashed=0;verticalLabelPosition=bottom;verticalAlign=top;align=center;html=1;fontSize=12;fontStyle=0;aspect=fixed;pointerEvents=1;shape=mxgraph.aws4.user;movable=1;resizable=1;rotatable=1;deletable=1;editable=1;locked=0;connectable=1;" parent="1" vertex="1">
          <mxGeometry x="-750" y="-76" width="28" height="28" as="geometry" />
        </mxCell>
        <mxCell id="2045cuq98jGpGBP9lHV3-50" value="&lt;span style=&quot;font-size: 25px;&quot;&gt;Change account details&lt;br&gt;&lt;br&gt;My Cart&lt;br&gt;&lt;br&gt;My Orders&lt;br&gt;&lt;br&gt;My Products&lt;br&gt;&lt;br&gt;Accessibility Settings&lt;br&gt;&lt;br&gt;Logout&lt;br&gt;&amp;nbsp;&lt;/span&gt;" style="text;html=1;strokeColor=none;fillColor=none;align=left;verticalAlign=middle;whiteSpace=wrap;rounded=0;" parent="1" vertex="1">
          <mxGeometry x="-750" y="160" width="180" height="30" as="geometry" />
        </mxCell>
        <mxCell id="2045cuq98jGpGBP9lHV3-51" value="&lt;div style=&quot;font-size: 16px;&quot;&gt;&lt;span style=&quot;background-color: initial; white-space: pre;&quot;&gt;&#x9;&lt;/span&gt;My Cart&lt;span style=&quot;white-space: pre;&quot;&gt;&#x9;&lt;/span&gt;&lt;span style=&quot;white-space: pre;&quot;&gt;&#x9;&lt;/span&gt;Sell Product&lt;span style=&quot;white-space: pre;&quot;&gt;&#x9;&lt;/span&gt;&lt;span style=&quot;white-space: pre;&quot;&gt;&#x9;&lt;/span&gt;Trending&amp;nbsp;&lt;/div&gt;" style="text;html=1;strokeColor=none;fillColor=none;align=right;verticalAlign=middle;whiteSpace=wrap;rounded=0;" parent="1" vertex="1">
          <mxGeometry x="-1760" y="-78" width="540" height="36" as="geometry" />
        </mxCell>
        <mxCell id="2045cuq98jGpGBP9lHV3-54" style="edgeStyle=orthogonalEdgeStyle;rounded=0;orthogonalLoop=1;jettySize=auto;html=1;strokeWidth=4;" parent="1" source="2045cuq98jGpGBP9lHV3-52" edge="1">
          <mxGeometry relative="1" as="geometry">
            <mxPoint x="-1186.1428571428569" y="-892.5714285714284" as="targetPoint" />
            <Array as="points">
              <mxPoint x="-1120" y="-783" />
              <mxPoint x="-1120" y="-893" />
            </Array>
          </mxGeometry>
        </mxCell>
        <mxCell id="2045cuq98jGpGBP9lHV3-55" style="edgeStyle=orthogonalEdgeStyle;rounded=0;orthogonalLoop=1;jettySize=auto;html=1;exitX=1;exitY=0.25;exitDx=0;exitDy=0;strokeWidth=4;" parent="1" source="2045cuq98jGpGBP9lHV3-52" edge="1">
          <mxGeometry relative="1" as="geometry">
            <mxPoint x="-707.5714285714284" y="-858.2857142857142" as="targetPoint" />
            <mxPoint x="-870" y="-790" as="sourcePoint" />
            <Array as="points">
              <mxPoint x="-840" y="-790" />
              <mxPoint x="-840" y="-858" />
            </Array>
          </mxGeometry>
        </mxCell>
        <mxCell id="h-zxiZMkEH1Zj-MicnAZ-10" style="edgeStyle=orthogonalEdgeStyle;shape=connector;rounded=0;orthogonalLoop=1;jettySize=auto;html=1;labelBackgroundColor=default;strokeColor=default;strokeWidth=4;align=center;verticalAlign=middle;fontFamily=Helvetica;fontSize=12;fontColor=default;endArrow=classic;" edge="1" parent="1" source="2045cuq98jGpGBP9lHV3-52">
          <mxGeometry relative="1" as="geometry">
            <mxPoint x="-1713.1428571428573" y="-877.2857142857143" as="targetPoint" />
          </mxGeometry>
        </mxCell>
        <mxCell id="h-zxiZMkEH1Zj-MicnAZ-11" style="edgeStyle=orthogonalEdgeStyle;shape=connector;rounded=0;orthogonalLoop=1;jettySize=auto;html=1;labelBackgroundColor=default;strokeColor=default;strokeWidth=4;align=center;verticalAlign=middle;fontFamily=Helvetica;fontSize=12;fontColor=default;endArrow=classic;" edge="1" parent="1" source="2045cuq98jGpGBP9lHV3-52">
          <mxGeometry relative="1" as="geometry">
            <mxPoint x="-493" y="-861" as="targetPoint" />
            <Array as="points">
              <mxPoint x="-494" y="-790" />
              <mxPoint x="-494" y="-855" />
            </Array>
          </mxGeometry>
        </mxCell>
        <mxCell id="2045cuq98jGpGBP9lHV3-52" value="&lt;font style=&quot;font-size: 20px;&quot;&gt;Links to other pages such as some and search&lt;/font&gt;" style="text;html=1;strokeColor=none;fillColor=none;align=center;verticalAlign=middle;whiteSpace=wrap;rounded=0;" parent="1" vertex="1">
          <mxGeometry x="-1060" y="-798" width="170" height="30" as="geometry" />
        </mxCell>
        <mxCell id="2045cuq98jGpGBP9lHV3-58" style="edgeStyle=orthogonalEdgeStyle;shape=connector;rounded=0;orthogonalLoop=1;jettySize=auto;html=1;labelBackgroundColor=default;strokeColor=default;strokeWidth=4;align=center;verticalAlign=middle;fontFamily=Helvetica;fontSize=12;fontColor=default;endArrow=classic;" parent="1" source="2045cuq98jGpGBP9lHV3-57" edge="1">
          <mxGeometry relative="1" as="geometry">
            <mxPoint x="-1960" y="-931" as="targetPoint" />
            <Array as="points">
              <mxPoint x="-1960" y="-1025" />
            </Array>
          </mxGeometry>
        </mxCell>
        <mxCell id="2045cuq98jGpGBP9lHV3-59" style="edgeStyle=orthogonalEdgeStyle;shape=connector;rounded=0;orthogonalLoop=1;jettySize=auto;html=1;labelBackgroundColor=default;strokeColor=default;strokeWidth=4;align=center;verticalAlign=middle;fontFamily=Helvetica;fontSize=12;fontColor=default;endArrow=classic;" parent="1" source="2045cuq98jGpGBP9lHV3-57" edge="1">
          <mxGeometry relative="1" as="geometry">
            <mxPoint x="-736.1428571428569" y="-944" as="targetPoint" />
          </mxGeometry>
        </mxCell>
        <mxCell id="2045cuq98jGpGBP9lHV3-57" value="&lt;span style=&quot;font-size: 20px;&quot;&gt;A hamburger menu / side menu that displays&amp;nbsp;the current users username (it store&#39;s&amp;nbsp;more user sensitives&amp;nbsp;options)&lt;/span&gt;" style="text;html=1;strokeColor=none;fillColor=none;align=center;verticalAlign=middle;whiteSpace=wrap;rounded=0;" parent="1" vertex="1">
          <mxGeometry x="-1090" y="-1040" width="260" height="30" as="geometry" />
        </mxCell>
        <mxCell id="2045cuq98jGpGBP9lHV3-61" style="edgeStyle=orthogonalEdgeStyle;shape=connector;rounded=0;orthogonalLoop=1;jettySize=auto;html=1;labelBackgroundColor=default;strokeColor=default;strokeWidth=4;align=center;verticalAlign=middle;fontFamily=Helvetica;fontSize=12;fontColor=default;endArrow=classic;" parent="1" source="2045cuq98jGpGBP9lHV3-60" edge="1">
          <mxGeometry relative="1" as="geometry">
            <mxPoint x="-707.5714285714284" y="-792.5714285714284" as="targetPoint" />
            <Array as="points">
              <mxPoint x="-790" y="-595" />
              <mxPoint x="-790" y="-730" />
              <mxPoint x="-708" y="-730" />
            </Array>
          </mxGeometry>
        </mxCell>
        <mxCell id="2045cuq98jGpGBP9lHV3-62" style="edgeStyle=orthogonalEdgeStyle;shape=connector;rounded=0;orthogonalLoop=1;jettySize=auto;html=1;labelBackgroundColor=default;strokeColor=default;strokeWidth=4;align=center;verticalAlign=middle;fontFamily=Helvetica;fontSize=12;fontColor=default;endArrow=classic;" parent="1" source="2045cuq98jGpGBP9lHV3-60" edge="1">
          <mxGeometry relative="1" as="geometry">
            <mxPoint x="-1329" y="-828.2857142857142" as="targetPoint" />
          </mxGeometry>
        </mxCell>
        <mxCell id="2045cuq98jGpGBP9lHV3-60" value="&lt;span style=&quot;font-size: 20px;&quot;&gt;Search bar so a user can search for a item&amp;nbsp;right away without having to go to a page&lt;/span&gt;" style="text;html=1;strokeColor=none;fillColor=none;align=center;verticalAlign=middle;whiteSpace=wrap;rounded=0;" parent="1" vertex="1">
          <mxGeometry x="-1105" y="-610" width="260" height="30" as="geometry" />
        </mxCell>
        <mxCell id="2045cuq98jGpGBP9lHV3-64" style="edgeStyle=orthogonalEdgeStyle;shape=connector;rounded=0;orthogonalLoop=1;jettySize=auto;html=1;labelBackgroundColor=default;strokeColor=default;strokeWidth=4;align=center;verticalAlign=middle;fontFamily=Helvetica;fontSize=12;fontColor=default;endArrow=classic;" parent="1" source="2045cuq98jGpGBP9lHV3-63" edge="1">
          <mxGeometry relative="1" as="geometry">
            <mxPoint x="-1916" y="-854" as="targetPoint" />
          </mxGeometry>
        </mxCell>
        <mxCell id="2045cuq98jGpGBP9lHV3-63" value="&lt;span style=&quot;font-size: 20px;&quot;&gt;User icon to demonstrate that hamburger menu holds user sensitive pages&amp;nbsp;&lt;/span&gt;" style="text;html=1;strokeColor=none;fillColor=none;align=center;verticalAlign=middle;whiteSpace=wrap;rounded=0;" parent="1" vertex="1">
          <mxGeometry x="-2310" y="-780" width="260" height="30" as="geometry" />
        </mxCell>
        <mxCell id="2045cuq98jGpGBP9lHV3-66" style="edgeStyle=orthogonalEdgeStyle;shape=connector;rounded=0;orthogonalLoop=1;jettySize=auto;html=1;labelBackgroundColor=default;strokeColor=default;strokeWidth=4;align=center;verticalAlign=middle;fontFamily=Helvetica;fontSize=12;fontColor=default;endArrow=classic;" parent="1" source="2045cuq98jGpGBP9lHV3-65" edge="1">
          <mxGeometry relative="1" as="geometry">
            <mxPoint x="-684.7142857142853" y="-906.8571428571429" as="targetPoint" />
          </mxGeometry>
        </mxCell>
        <mxCell id="2045cuq98jGpGBP9lHV3-65" value="&lt;span style=&quot;font-size: 20px;&quot;&gt;User icon to demonstrate that hamburger menu holds user sensitive pages&amp;nbsp;&lt;/span&gt;" style="text;html=1;strokeColor=none;fillColor=none;align=center;verticalAlign=middle;whiteSpace=wrap;rounded=0;" parent="1" vertex="1">
          <mxGeometry x="-330" y="-896" width="260" height="30" as="geometry" />
        </mxCell>
        <mxCell id="2045cuq98jGpGBP9lHV3-68" style="edgeStyle=orthogonalEdgeStyle;shape=connector;rounded=0;orthogonalLoop=1;jettySize=auto;html=1;labelBackgroundColor=default;strokeColor=default;strokeWidth=4;align=center;verticalAlign=middle;fontFamily=Helvetica;fontSize=12;fontColor=default;endArrow=classic;" parent="1" source="2045cuq98jGpGBP9lHV3-67" edge="1">
          <mxGeometry relative="1" as="geometry">
            <mxPoint x="-754.6470588235293" y="-916.2352941176471" as="targetPoint" />
          </mxGeometry>
        </mxCell>
        <mxCell id="2045cuq98jGpGBP9lHV3-67" value="&lt;span style=&quot;font-size: 20px;&quot;&gt;Hamburger menu/side menu icon to tell user it is a hamburger menu&lt;/span&gt;" style="text;html=1;strokeColor=none;fillColor=none;align=center;verticalAlign=middle;whiteSpace=wrap;rounded=0;" parent="1" vertex="1">
          <mxGeometry x="-1090" y="-930" width="260" height="30" as="geometry" />
        </mxCell>
        <mxCell id="2045cuq98jGpGBP9lHV3-70" style="edgeStyle=orthogonalEdgeStyle;shape=connector;rounded=0;orthogonalLoop=1;jettySize=auto;html=1;labelBackgroundColor=default;strokeColor=default;strokeWidth=4;align=center;verticalAlign=middle;fontFamily=Helvetica;fontSize=12;fontColor=default;endArrow=classic;" parent="1" source="2045cuq98jGpGBP9lHV3-69" edge="1">
          <mxGeometry relative="1" as="geometry">
            <mxPoint x="-1985" y="-934" as="targetPoint" />
          </mxGeometry>
        </mxCell>
        <mxCell id="2045cuq98jGpGBP9lHV3-69" value="&lt;span style=&quot;font-size: 20px;&quot;&gt;Hamburger menu / side menu icon to tell user it is a hamburger menu&lt;/span&gt;" style="text;html=1;strokeColor=none;fillColor=none;align=center;verticalAlign=middle;whiteSpace=wrap;rounded=0;" parent="1" vertex="1">
          <mxGeometry x="-2310" y="-1010" width="260" height="30" as="geometry" />
        </mxCell>
        <mxCell id="2045cuq98jGpGBP9lHV3-72" style="edgeStyle=orthogonalEdgeStyle;shape=connector;rounded=0;orthogonalLoop=1;jettySize=auto;html=1;labelBackgroundColor=default;strokeColor=default;strokeWidth=4;align=center;verticalAlign=middle;fontFamily=Helvetica;fontSize=12;fontColor=default;endArrow=classic;" parent="1" source="2045cuq98jGpGBP9lHV3-71" edge="1">
          <mxGeometry relative="1" as="geometry">
            <mxPoint x="-1837.5714285714284" y="-116.85714285714266" as="targetPoint" />
            <Array as="points">
              <mxPoint x="-965" y="-270" />
              <mxPoint x="-1838" y="-270" />
            </Array>
          </mxGeometry>
        </mxCell>
        <mxCell id="2045cuq98jGpGBP9lHV3-73" style="edgeStyle=orthogonalEdgeStyle;shape=connector;rounded=0;orthogonalLoop=1;jettySize=auto;html=1;labelBackgroundColor=default;strokeColor=default;strokeWidth=4;align=center;verticalAlign=middle;fontFamily=Helvetica;fontSize=12;fontColor=default;endArrow=classic;" parent="1" source="2045cuq98jGpGBP9lHV3-71" edge="1">
          <mxGeometry relative="1" as="geometry">
            <mxPoint x="-618.9999999999995" y="-115.42857142857133" as="targetPoint" />
          </mxGeometry>
        </mxCell>
        <mxCell id="2045cuq98jGpGBP9lHV3-71" value="&lt;span style=&quot;font-size: 20px;&quot;&gt;Hamburger/side menu menu&lt;/span&gt;" style="text;html=1;strokeColor=none;fillColor=none;align=center;verticalAlign=middle;whiteSpace=wrap;rounded=0;" parent="1" vertex="1">
          <mxGeometry x="-1095" y="-220" width="260" height="30" as="geometry" />
        </mxCell>
        <mxCell id="2045cuq98jGpGBP9lHV3-77" style="edgeStyle=orthogonalEdgeStyle;shape=connector;rounded=0;orthogonalLoop=1;jettySize=auto;html=1;labelBackgroundColor=default;strokeColor=default;strokeWidth=4;align=center;verticalAlign=middle;fontFamily=Helvetica;fontSize=12;fontColor=default;endArrow=classic;" parent="1" source="2045cuq98jGpGBP9lHV3-74" edge="1">
          <mxGeometry relative="1" as="geometry">
            <mxPoint x="-559" y="-118" as="targetPoint" />
          </mxGeometry>
        </mxCell>
        <mxCell id="2045cuq98jGpGBP9lHV3-74" value="&lt;span style=&quot;font-size: 20px;&quot;&gt;Exit button so the user can exit the hamburger menu/ side menu&lt;/span&gt;" style="text;html=1;strokeColor=none;fillColor=none;align=center;verticalAlign=middle;whiteSpace=wrap;rounded=0;" parent="1" vertex="1">
          <mxGeometry x="-510" y="-220" width="260" height="30" as="geometry" />
        </mxCell>
        <mxCell id="2045cuq98jGpGBP9lHV3-76" style="edgeStyle=orthogonalEdgeStyle;shape=connector;rounded=0;orthogonalLoop=1;jettySize=auto;html=1;labelBackgroundColor=default;strokeColor=default;strokeWidth=4;align=center;verticalAlign=middle;fontFamily=Helvetica;fontSize=12;fontColor=default;endArrow=classic;" parent="1" source="2045cuq98jGpGBP9lHV3-75" edge="1">
          <mxGeometry relative="1" as="geometry">
            <mxPoint x="-1679" y="-112.57142857142844" as="targetPoint" />
          </mxGeometry>
        </mxCell>
        <mxCell id="2045cuq98jGpGBP9lHV3-75" value="&lt;span style=&quot;font-size: 20px;&quot;&gt;Exit button so the user can exit the hamburger/side menu menu&lt;/span&gt;" style="text;html=1;strokeColor=none;fillColor=none;align=center;verticalAlign=middle;whiteSpace=wrap;rounded=0;" parent="1" vertex="1">
          <mxGeometry x="-1535" y="-220" width="260" height="30" as="geometry" />
        </mxCell>
        <mxCell id="2045cuq98jGpGBP9lHV3-79" style="edgeStyle=orthogonalEdgeStyle;shape=connector;rounded=0;orthogonalLoop=1;jettySize=auto;html=1;labelBackgroundColor=default;strokeColor=default;strokeWidth=4;align=center;verticalAlign=middle;fontFamily=Helvetica;fontSize=12;fontColor=default;endArrow=classic;" parent="1" source="2045cuq98jGpGBP9lHV3-78" edge="1">
          <mxGeometry relative="1" as="geometry">
            <mxPoint x="-757.5714285714284" y="-9.714285714285552" as="targetPoint" />
          </mxGeometry>
        </mxCell>
        <mxCell id="2045cuq98jGpGBP9lHV3-80" style="edgeStyle=orthogonalEdgeStyle;shape=connector;rounded=0;orthogonalLoop=1;jettySize=auto;html=1;labelBackgroundColor=default;strokeColor=default;strokeWidth=4;align=center;verticalAlign=middle;fontFamily=Helvetica;fontSize=12;fontColor=default;endArrow=classic;" parent="1" source="2045cuq98jGpGBP9lHV3-78" edge="1">
          <mxGeometry relative="1" as="geometry">
            <mxPoint x="-762" y="277" as="targetPoint" />
            <Array as="points">
              <mxPoint x="-825" y="-9" />
              <mxPoint x="-825" y="190" />
              <mxPoint x="-826" y="340" />
            </Array>
          </mxGeometry>
        </mxCell>
        <mxCell id="2045cuq98jGpGBP9lHV3-81" style="edgeStyle=orthogonalEdgeStyle;shape=connector;rounded=0;orthogonalLoop=1;jettySize=auto;html=1;labelBackgroundColor=default;strokeColor=default;strokeWidth=4;align=center;verticalAlign=middle;fontFamily=Helvetica;fontSize=12;fontColor=default;endArrow=classic;" parent="1" source="2045cuq98jGpGBP9lHV3-78" edge="1">
          <mxGeometry relative="1" as="geometry">
            <mxPoint x="-1681.8571428571427" y="-9.714285714285552" as="targetPoint" />
          </mxGeometry>
        </mxCell>
        <mxCell id="2045cuq98jGpGBP9lHV3-82" value="" style="edgeStyle=orthogonalEdgeStyle;shape=connector;rounded=0;orthogonalLoop=1;jettySize=auto;html=1;labelBackgroundColor=default;strokeColor=default;strokeWidth=4;align=center;verticalAlign=middle;fontFamily=Helvetica;fontSize=12;fontColor=default;endArrow=classic;" parent="1" source="2045cuq98jGpGBP9lHV3-78" edge="1">
          <mxGeometry relative="1" as="geometry">
            <mxPoint x="-1718" y="236" as="targetPoint" />
            <Array as="points">
              <mxPoint x="-1590" y="-9" />
              <mxPoint x="-1590" y="236" />
            </Array>
          </mxGeometry>
        </mxCell>
        <mxCell id="2045cuq98jGpGBP9lHV3-78" value="&lt;span style=&quot;font-size: 20px;&quot;&gt;Clickable links to pages that are more user sensitive&amp;nbsp;&lt;/span&gt;" style="text;html=1;strokeColor=none;fillColor=none;align=center;verticalAlign=middle;whiteSpace=wrap;rounded=0;" parent="1" vertex="1">
          <mxGeometry x="-1105" y="-22" width="260" height="26" as="geometry" />
        </mxCell>
        <mxCell id="2045cuq98jGpGBP9lHV3-86" style="edgeStyle=orthogonalEdgeStyle;shape=connector;rounded=0;orthogonalLoop=1;jettySize=auto;html=1;labelBackgroundColor=default;strokeColor=default;strokeWidth=4;align=center;verticalAlign=middle;fontFamily=Helvetica;fontSize=12;fontColor=default;endArrow=classic;" parent="1" source="2045cuq98jGpGBP9lHV3-83" edge="1">
          <mxGeometry relative="1" as="geometry">
            <mxPoint x="-1967.4285714285716" y="-58.23809523809541" as="targetPoint" />
          </mxGeometry>
        </mxCell>
        <mxCell id="2045cuq98jGpGBP9lHV3-83" value="&lt;span style=&quot;font-size: 20px;&quot;&gt;Users username with&amp;nbsp; user&amp;nbsp; icon to suggest they are more user-orientated settings&lt;/span&gt;" style="text;html=1;strokeColor=none;fillColor=none;align=center;verticalAlign=middle;whiteSpace=wrap;rounded=0;" parent="1" vertex="1">
          <mxGeometry x="-2350" y="-72" width="260" height="30" as="geometry" />
        </mxCell>
        <mxCell id="2045cuq98jGpGBP9lHV3-87" style="edgeStyle=orthogonalEdgeStyle;shape=connector;rounded=0;orthogonalLoop=1;jettySize=auto;html=1;labelBackgroundColor=default;strokeColor=default;strokeWidth=4;align=center;verticalAlign=middle;fontFamily=Helvetica;fontSize=12;fontColor=default;endArrow=classic;" parent="1" source="2045cuq98jGpGBP9lHV3-84" edge="1">
          <mxGeometry relative="1" as="geometry">
            <mxPoint x="-570.2857142857142" y="-64.90476190476193" as="targetPoint" />
          </mxGeometry>
        </mxCell>
        <mxCell id="2045cuq98jGpGBP9lHV3-84" value="&lt;span style=&quot;font-size: 20px;&quot;&gt;Users username with&amp;nbsp; user&amp;nbsp; icon to suggest they are more user-orientated settings&lt;/span&gt;" style="text;html=1;strokeColor=none;fillColor=none;align=center;verticalAlign=middle;whiteSpace=wrap;rounded=0;" parent="1" vertex="1">
          <mxGeometry x="-380" y="-80" width="260" height="30" as="geometry" />
        </mxCell>
        <mxCell id="2045cuq98jGpGBP9lHV3-92" style="edgeStyle=orthogonalEdgeStyle;shape=connector;rounded=0;orthogonalLoop=1;jettySize=auto;html=1;labelBackgroundColor=default;strokeColor=default;strokeWidth=4;align=center;verticalAlign=middle;fontFamily=Helvetica;fontSize=12;fontColor=default;endArrow=classic;" parent="1" source="2045cuq98jGpGBP9lHV3-90" edge="1">
          <mxGeometry relative="1" as="geometry">
            <mxPoint x="-746.75" y="347" as="targetPoint" />
          </mxGeometry>
        </mxCell>
        <mxCell id="2045cuq98jGpGBP9lHV3-93" style="edgeStyle=orthogonalEdgeStyle;shape=connector;rounded=0;orthogonalLoop=1;jettySize=auto;html=1;labelBackgroundColor=default;strokeColor=default;strokeWidth=4;align=center;verticalAlign=middle;fontFamily=Helvetica;fontSize=12;fontColor=default;endArrow=classic;" parent="1" source="2045cuq98jGpGBP9lHV3-90" edge="1">
          <mxGeometry relative="1" as="geometry">
            <mxPoint x="-1901.75" y="315.75" as="targetPoint" />
          </mxGeometry>
        </mxCell>
        <mxCell id="2045cuq98jGpGBP9lHV3-90" value="&lt;span style=&quot;font-size: 20px;&quot;&gt;A link to start the user log out process&amp;nbsp;&lt;/span&gt;" style="text;html=1;strokeColor=none;fillColor=none;align=center;verticalAlign=middle;whiteSpace=wrap;rounded=0;" parent="1" vertex="1">
          <mxGeometry x="-1320" y="410" width="260" height="26" as="geometry" />
        </mxCell>
        <mxCell id="h-zxiZMkEH1Zj-MicnAZ-5" style="edgeStyle=orthogonalEdgeStyle;shape=connector;rounded=0;orthogonalLoop=1;jettySize=auto;html=1;labelBackgroundColor=default;strokeColor=default;strokeWidth=4;align=center;verticalAlign=middle;fontFamily=Helvetica;fontSize=12;fontColor=default;endArrow=classic;" edge="1" parent="1" source="h-zxiZMkEH1Zj-MicnAZ-1">
          <mxGeometry relative="1" as="geometry">
            <mxPoint x="-1959.25" y="-834.25" as="targetPoint" />
          </mxGeometry>
        </mxCell>
        <mxCell id="h-zxiZMkEH1Zj-MicnAZ-6" style="edgeStyle=orthogonalEdgeStyle;shape=connector;rounded=0;orthogonalLoop=1;jettySize=auto;html=1;labelBackgroundColor=default;strokeColor=default;strokeWidth=4;align=center;verticalAlign=middle;fontFamily=Helvetica;fontSize=12;fontColor=default;endArrow=classic;" edge="1" parent="1" source="h-zxiZMkEH1Zj-MicnAZ-1">
          <mxGeometry relative="1" as="geometry">
            <mxPoint x="-419.25" y="-789.25" as="targetPoint" />
          </mxGeometry>
        </mxCell>
        <mxCell id="h-zxiZMkEH1Zj-MicnAZ-1" value="&lt;span style=&quot;font-size: 20px;&quot;&gt;Nav/header to be the colour blue&lt;/span&gt;" style="text;html=1;strokeColor=none;fillColor=none;align=center;verticalAlign=middle;whiteSpace=wrap;rounded=0;" vertex="1" parent="1">
          <mxGeometry x="-1090" y="-480" width="260" height="30" as="geometry" />
        </mxCell>
        <mxCell id="h-zxiZMkEH1Zj-MicnAZ-8" style="edgeStyle=orthogonalEdgeStyle;shape=connector;rounded=0;orthogonalLoop=1;jettySize=auto;html=1;labelBackgroundColor=default;strokeColor=default;strokeWidth=4;align=center;verticalAlign=middle;fontFamily=Helvetica;fontSize=12;fontColor=default;endArrow=classic;" edge="1" parent="1" source="h-zxiZMkEH1Zj-MicnAZ-7">
          <mxGeometry relative="1" as="geometry">
            <mxPoint x="-1661.8571428571427" y="303.14285714285734" as="targetPoint" />
            <Array as="points">
              <mxPoint x="-1150" y="155" />
              <mxPoint x="-1150" y="303" />
            </Array>
          </mxGeometry>
        </mxCell>
        <mxCell id="h-zxiZMkEH1Zj-MicnAZ-9" style="edgeStyle=orthogonalEdgeStyle;shape=connector;rounded=0;orthogonalLoop=1;jettySize=auto;html=1;labelBackgroundColor=default;strokeColor=default;strokeWidth=4;align=center;verticalAlign=middle;fontFamily=Helvetica;fontSize=12;fontColor=default;endArrow=classic;" edge="1" parent="1">
          <mxGeometry relative="1" as="geometry">
            <mxPoint x="-566.1428571428569" y="340.2857142857142" as="targetPoint" />
            <mxPoint x="-1000" y="220" as="sourcePoint" />
            <Array as="points">
              <mxPoint x="-1000" y="450" />
              <mxPoint x="-326" y="450" />
              <mxPoint x="-326" y="340" />
            </Array>
          </mxGeometry>
        </mxCell>
        <mxCell id="h-zxiZMkEH1Zj-MicnAZ-7" value="&lt;span style=&quot;font-size: 20px;&quot;&gt;The side menu is to be the same blue but has a pattern so the user can tell it apart from the header and other pages.&amp;nbsp;&lt;/span&gt;" style="text;html=1;strokeColor=none;fillColor=none;align=center;verticalAlign=middle;whiteSpace=wrap;rounded=0;" vertex="1" parent="1">
          <mxGeometry x="-1130" y="140" width="260" height="30" as="geometry" />
        </mxCell>
        <mxCell id="h-zxiZMkEH1Zj-MicnAZ-12" value="&lt;font style=&quot;font-size: 50px;&quot;&gt;&lt;b&gt;&lt;u&gt;Customer Header/Navbar&lt;/u&gt;&lt;/b&gt;&lt;/font&gt;" style="text;html=1;strokeColor=none;fillColor=none;align=center;verticalAlign=middle;whiteSpace=wrap;rounded=0;fontSize=12;fontFamily=Helvetica;fontColor=default;" vertex="1" parent="1">
          <mxGeometry x="-1631" y="-1160" width="712.5" height="30" as="geometry" />
        </mxCell>
      </root>
    </mxGraphModel>
  </diagram>
</mxfile>
